inDegrees=no
num_controls=7
num_derivatives=13
num_iterations=130
num_multipliers=7
num_parameters=0
num_slacks=7
num_states=26
objective=5.149391
objective_accelerations=0.632204
objective_balance=0.022474
objective_effort=0.164690
objective_height=4.255411
objective_ligament=0.074612
solver_duration=1536.954771
status=Solve_Succeeded
success=true
DataType=double
version=3
OpenSimVersion=4.4-2022-07-23-0e9fedc
endheader
time	/jointset/ground_pelvis/pelvis_tilt/value	/jointset/ground_pelvis/pelvis_tx/value	/jointset/ground_pelvis/pelvis_ty/value	/jointset/hip_l/hip_flexion_l/value	/jointset/hip_l/hip_adduction_l/value	/jointset/hip_l/hip_rotation_l/value	/jointset/back/lumbar_extension/value	/jointset/patellofemoral_l/patellar_flexion_l/value	/jointset/knee_l/knee_flexion_l/value	/jointset/knee_l/knee_adduction_l/value	/jointset/knee_l/knee_rotation_l/value	/jointset/ankle_l/ankle_angle_l/value	/jointset/subtalar_l/subtalar_angle_l/value	/jointset/ground_pelvis/pelvis_tilt/speed	/jointset/ground_pelvis/pelvis_tx/speed	/jointset/ground_pelvis/pelvis_ty/speed	/jointset/hip_l/hip_flexion_l/speed	/jointset/hip_l/hip_adduction_l/speed	/jointset/hip_l/hip_rotation_l/speed	/jointset/back/lumbar_extension/speed	/jointset/patellofemoral_l/patellar_flexion_l/speed	/jointset/knee_l/knee_flexion_l/speed	/jointset/knee_l/knee_adduction_l/speed	/jointset/knee_l/knee_rotation_l/speed	/jointset/ankle_l/ankle_angle_l/speed	/jointset/subtalar_l/subtalar_angle_l/speed	/forceset/tau_hip_flexion_l	/forceset/tau_hip_adduction_l	/forceset/tau_hip_rotation_l	/forceset/tau_knee_flexion_l	/forceset/tau_ankle_angle_l	/forceset/tau_subtalar_angle_l	/forceset/tau_lumbar_extension	lambda_cid13_p0	lambda_cid13_p1	lambda_cid13_p2	lambda_cid13_p3	lambda_cid13_p4	lambda_cid13_p5	lambda_cid14_p0	/jointset/ground_pelvis/pelvis_tilt/accel	/jointset/ground_pelvis/pelvis_tx/accel	/jointset/ground_pelvis/pelvis_ty/accel	/jointset/hip_l/hip_flexion_l/accel	/jointset/hip_l/hip_adduction_l/accel	/jointset/hip_l/hip_rotation_l/accel	/jointset/back/lumbar_extension/accel	/jointset/patellofemoral_l/patellar_flexion_l/accel	/jointset/knee_l/knee_flexion_l/accel	/jointset/knee_l/knee_adduction_l/accel	/jointset/knee_l/knee_rotation_l/accel	/jointset/ankle_l/ankle_angle_l/accel	/jointset/subtalar_l/subtalar_angle_l/accel	gamma_cid13_p0	gamma_cid13_p1	gamma_cid13_p2	gamma_cid13_p3	gamma_cid13_p4	gamma_cid13_p5	gamma_cid14_p0
1	-0.4404198954262955	0.01363859574413274	0.6314053828621764	1.577286265591351	-0.3556895881211154	0.1227258082290796	-0.4363306719859716	1.406081471368865	1.406081471368653	0.02394848786974698	-0.1745305087531704	0.4346784643251528	0.234347993379145	-0.1359802745550037	0.0001236944169192268	0.03096861287562867	0.02812733526054194	0.001613682559222455	-0.05574037191355145	-1.249179343860964e-05	-0.1536533401781146	-0.1536533401781221	-0.003018802241887969	-4.049926586540932e-06	-0.05888531474020638	-0.03163876074792383	-0.230898180129268	0.0368680661268433	-0.005680376941099139	-0.2610439418753774	-0.06179859015966518	0.01708997681956856	0.2029485632890561	-49.95452306964975	3.876714075865517	-3.814308956351836	5.318030045631954	-533.0677689114366	-72.35011491515444	-0.02441657178509201	1.583312209422078	0.2515561944123602	1.757413632223321	-6.104519914606593	-0.1690575987782755	-1.51644566581445	-0.0212359704138505	-5.144366088224496	-5.144366088224408	-0.6769612120120873	-0.03056730188680969	-1.06379048236699	-0.8816254548579913	-4.843577813992377e-09	-1.129576566247943e-07	1.931245229164264e-08	-5.109700815248396e-09	-5.8999278989243e-09	-1.058926690868967e-07	-7.302114426316223e-09
1.01	-0.4417013290297865	0.01365236526405355	0.631802710510918	1.577263547445817	-0.355681251225324	0.1220935213267474	-0.436330882275555	1.404288089299507	1.404288089299336	0.02388459758515576	-0.1745305549952734	0.43403639597872	0.233988624644725	-0.1203036070012742	0.002631582167278722	0.04848741904435896	-0.03265355372641088	5.896151812124778e-05	-0.07070936182373075	-2.651227631601393e-05	-0.2050203901113163	-0.2050203901113248	-0.009756585031460648	-4.314607776106857e-06	-0.06954399903790284	-0.040228492088037	-0.2312983038659557	0.03701404634187087	-0.00572221025274244	-0.2599879291959989	-0.06221885106526683	0.01709095409087753	0.2031380058566378	-50.06259300181881	3.859845629574914	-3.77122288931824	5.321213977194479	-532.8472249448533	-72.16516449082246	-0.02443874727179741	1.560269962176087	0.2506091275346162	1.747687311276735	-6.062261862660788	-0.1478900230419523	-1.485993223377091	0.008972990114916106	-5.132469935782827	-5.132469935783069	-0.6718028852964681	0.01537211230137635	-1.069261765959658	-0.8466528684434799	-6.387103446454309e-09	-1.41420382228671e-07	2.038408497611092e-08	-9.09769858840217e-09	-1.057107134113783e-08	-1.238917876218505e-07	-9.838075946596639e-09
1.02	-0.4428259107709765	0.01369125447391514	0.6323749408617626	1.576633542716003	-0.3556883036732019	0.1213117710113634	-0.4363311411544923	1.401981117632833	1.401981117632724	0.02375340625809007	-0.1745305782514672	0.4332872699168118	0.2335435574179328	-0.1046099020944392	0.005147632405075694	0.06594915329625341	-0.09332998159021585	-0.00146418617361726	-0.08563305452420782	-2.220966560180377e-05	-0.2563712596411121	-0.256371259641122	-0.01647901073569616	5.472524907831964e-07	-0.08029685783514696	-0.04877845922237058	-0.231698427602829	0.03716002655688312	-0.005764043564437766	-0.2589319165166189	-0.06263911197084009	0.01709193136217967	0.2033274484240283	-50.17629516892502	3.843285777094413	-3.727412029030732	5.324467406262713	-532.7510295617815	-71.97781761114184	-0.0244626397924505	1.586719680043294	0.2531886918997759	1.745999248856144	-6.083627689976998	-0.1627429289057092	-1.507386223873996	-0.01757135169538769	-5.141130007543293	-5.141130007543327	-0.6738897949446365	-0.02954199359551226	-1.082625382276659	-0.8736726137021109	-7.352959654225099e-09	-1.700073220432676e-07	2.103483189979835e-08	-1.437597807555677e-08	-1.434823371981847e-08	-1.415620989783667e-07	-1.245512347158122e-08
1.03	-0.4437934270489993	0.01375536780055298	0.6331214106797944	1.575397443929152	-0.3557104153087798	0.1203810688189001	-0.4363313737361937	1.399160882346665	1.399160882346653	0.02355509892895244	-0.1745305416020858	0.4324301389917139	0.2330132334853693	-0.08888660924444158	0.007678653560340111	0.08332606530081517	-0.1538574174306897	-0.002951222456427198	-0.1004949942659495	-3.176491485920463e-05	-0.3076567314846647	-0.307656731484667	-0.02317554295921246	6.60601763585969e-06	-0.09114533081725107	-0.05727475626194657	-0.2317750713471245	0.03727542963663793	-0.005795216124797321	-0.2577172116348757	-0.06286868897644773	0.01712812805242988	0.2032934652483686	-50.19888479804	3.7893186284847	-3.670603135660645	5.266420010244333	-532.2740025774056	-71.80366045290002	-0.02449401131034244	1.566145074701495	0.2535979572222602	1.730721778756711	-6.032448623128607	-0.1406446154450857	-1.473760632033808	0.006233651118774042	-5.119392826140271	-5.119392826139137	-0.6665224357748251	0.01564617849041576	-1.088369536558816	-0.8358436152823839	-8.312921276029649e-09	-1.985955293498104e-07	2.168128407082475e-08	-1.966742370265015e-08	-1.811627384274876e-08	-1.592290551595927e-07	-1.507299840477707e-08
1.04	-0.4446035082010716	0.01384489916471975	0.6340410865383721	1.573557041365522	-0.3557471894346772	0.1193021146725021	-0.4363319256176513	1.395828364931385	1.395828364931452	0.02329002877754453	-0.1745304510916543	0.4314640410807129	0.2323982995091705	-0.07312287690550637	0.01023123991086436	0.100590361405441	-0.2141907369530053	-0.004396684238313952	-0.1152834453160666	-8.606965772012646e-05	-0.3588276854633781	-0.358827685463373	-0.02983157517150737	1.131945961809429e-05	-0.1020902550146154	-0.06570046794940221	-0.2318517150911831	0.03739083271649961	-0.005826388685584062	-0.2565025067531326	-0.06309826598206	0.01716432474285602	0.2032594820729568	-50.22725908605351	3.73573630815224	-3.613138207934332	5.208995362992075	-531.9215842525073	-71.62781762921182	-0.02452719544051803	1.59480757783093	0.2575017309516573	1.723476068868947	-6.044804426345299	-0.1544280287210137	-1.49268848554907	-0.02652125041546319	-5.118226434575451	-5.118226434575528	-0.6657897927003312	-0.02981105822801636	-1.101915625328852	-0.85955554327804	-1.022876816569238e-08	-2.282623189283057e-07	2.372976416835221e-08	-2.320538336490807e-08	-2.245900222415059e-08	-1.762406011125562e-07	-1.808068972900118e-08
1.05	-0.4452559775400207	0.01396014836023037	0.6351327491762957	1.571114566655532	-0.3557982067466376	0.1180756910965129	-0.43633226504373	1.391984836504271	1.391984836504315	0.02295862119118561	-0.174530315148376	0.430388094711623	0.2316995391735587	-0.05738810372557671	0.01283057706756681	0.1177140506184429	-0.2742419775486286	-0.005800462312269906	-0.129984799611729	0.0001098909318158338	-0.4098466680560571	-0.4098466680560501	-0.03644236467499264	1.401185449894462e-05	-0.1131070264802886	-0.07403379380884982	-0.2321471207165062	0.03756234371435757	-0.005857976161930699	-0.2548382240450588	-0.06360662806648291	0.01722848027156169	0.2034778087760167	-50.32975141434915	3.661055239639645	-3.527255961071235	5.133808482257507	-531.4737732542346	-71.421101495702	-0.02456563036294914	1.560243994089912	0.2629410162902071	1.702592605390928	-5.975951326000268	-0.1324017608882438	-1.456416962478413	0.05641069954773795	-5.089030135513124	-5.0890301355128	-0.6576196849729379	0.0150214683529439	-1.102773273636111	-0.8175122928304183	-1.217448646997568e-08	-2.579628142027995e-07	2.582205763858282e-08	-2.66885465907649e-08	-2.681968961362966e-08	-1.932316654958865e-07	-2.110056281544493e-08
